<?xml version="1.0" encoding="UTF-8" standalone="no"?>
<svg
   viewBox="0 0 362.82999 362.82999"
   version="1.1"
   id="svg4"
   sodipodi:docname="Akkoma.svg"
   width="362.82999"
   height="362.82999"
   inkscape:version="1.3 (0e150ed6c4, 2023-07-21)"
   xmlns:inkscape="http://www.inkscape.org/namespaces/inkscape"
   xmlns:sodipodi="http://sodipodi.sourceforge.net/DTD/sodipodi-0.dtd"
   xmlns="http://www.w3.org/2000/svg"
   xmlns:svg="http://www.w3.org/2000/svg">
  <defs
     id="defs4" />
  <sodipodi:namedview
     id="namedview4"
     pagecolor="#505050"
     bordercolor="#eeeeee"
     borderopacity="1"
     inkscape:showpageshadow="0"
     inkscape:pageopacity="0"
     inkscape:pagecheckerboard="0"
     inkscape:deskcolor="#505050"
     inkscape:zoom="1.4674956"
     inkscape:cx="167.97325"
     inkscape:cy="160.8182"
     inkscape:window-width="1440"
     inkscape:window-height="837"
     inkscape:window-x="1912"
     inkscape:window-y="167"
     inkscape:window-maximized="1"
     inkscape:current-layer="svg4" />
  <path
     d="m 115.2,131.89 c 6.26,-6.54 20.19,-20.63 42.39,-26.14 15.79,-3.92 28.51,-1.28 33.51,0 83.72,21.41 116.03,201.78 77.79,226.32 -10.28,6.6 -26.86,2.7 -36.77,-3.3 -32.63,-19.78 -29.3,-72.87 -44.44,-73.73 -5.11,-0.29 -7.15,5.8 -20.91,24.94 -19.63,27.3 -31.49,43.44 -49.21,50.87 -2.53,1.06 -26.91,12.07 -41.84,1.23 -38.55,-28 -2.96,-155.84 39.49,-200.18 z m 56.31,10.45 c -27.39,-0.52 -46.38,38.21 -37.98,54.55 10.09,19.62 65.5,18.26 74.77,-3.3 7.21,-16.78 -11.38,-50.77 -36.79,-51.24 z"
     fill="#462d7a"
     id="path2" />
  <path
     id="path3"
     d="m 274.64648,5.6796875 c -8.82288,0.7098577 -25.54471,11.7344695 -49.97656,27.8300785 -28.00997,18.449981 -29.8894,24.320094 -56.85937,40.830078 -1.85774,1.137592 -3.44088,2.059897 -5.08008,3.02539 C 123.95689,73.249221 71.753113,74.546876 68.929688,86.509766 62.379694,114.24974 321.38025,200.4799 336.49023,176.16992 c 6.28468,-10.11397 -26.02789,-45.14307 -78.35937,-70.91211 -3.38948,-55.437673 31.02131,-90.256105 21.35937,-98.3574194 -1.19249,-0.999374 -2.8077,-1.3845164 -4.84375,-1.2207031 z" />
</svg>
